<?xml version="1.0" encoding="UTF-8"?>
<svg id="Calque_2" data-name="Calque 2" xmlns="http://www.w3.org/2000/svg" width="479.8296" height="485.1264" viewBox="0 0 479.8296 485.1264">
  <path d="M241.5592,0c.9742,.7054,2.0325,1.3206,2.9049,2.135,1.7945,1.6754,3.4451,3.5048,5.2364,5.1838,2.4037,2.2529,4.7343,4.6269,7.3717,6.576,3.0494,2.2536,6.2966,4.293,9.6451,6.0733,3.455,1.837,7.2061,3.068,11.0742,3.7814,2.0455,.3773,4.1318,.6131,6.2094,.7155,2.4427,.1204,4.9315,.2887,7.3362-.0369,3.4016-.4606,6.762-1.2812,10.1083-2.0809,4.4604-1.0661,8.4528-3.3167,12.599-5.1765,1.8575-.8332,3.7601-1.5663,5.6439-2.3408,2.6748-1.0996,5.1403,.3701,6.2378,2.1895,1.0477,1.737,1.8933,3.6121,2.6752,5.4901,2.3032,5.5312,5.0205,10.8335,8.8653,15.4534,2.1827,2.6227,4.4835,5.1919,7.0161,7.4683,4.0008,3.596,8.6137,6.3426,13.6355,8.2844,4.5891,1.7745,9.3534,2.9348,14.2994,3.1557,2.7015,.1207,5.4122,.3105,8.108,.2023,2.4281-.0975,4.8361-.6197,7.2633-.841,2.0526-.1871,4.1496-.4688,6.1723-.2351,1.9891,.2299,2.943,.9822,3.2592,3.0082,.3632,2.3271,.6915,4.662,.9446,7.0033,.4403,4.0746,.5203,8.2127,1.2914,12.2203,.81,4.2095,2.81,8.069,4.9228,11.8005,3.295,5.8196,7.6574,10.7939,12.483,15.3774,4.9272,4.6799,10.4378,8.4915,16.8542,10.8317,3.4598,1.2619,7.0256,2.193,10.7196,2.5393,1.0122,.0949,2.0157,.2924,3.0198,.4631,3.6103,.6136,4.4895,3.5364,3.8308,6.3873-.6662,2.8832-1.8699,5.6389-2.6082,8.5097-.6811,2.6487-1.1879,5.3595-1.5265,8.0735-.2793,2.2384-.2241,4.5211-.2754,6.7851-.1223,5.4044,.7851,10.6862,2.2097,15.8607,1.5352,5.576,3.8429,10.8435,7.0961,15.6602,3.4468,5.1034,7.9692,8.9669,13.3396,11.9715,2.8652,1.6029,5.6536,3.4376,8.1788,5.5275,2.5896,2.1431,2.7212,4.9359,.7845,7.7043-2.0475,2.9268-4.2257,5.7621-6.2753,8.6875-2.716,3.8765-4.8842,8.0662-6.4727,12.5138-1.2372,3.4638-2.285,7.0096-2.5515,10.7186-.1815,2.5263-.5313,5.0632-.4364,7.5815,.1732,4.5987,.9832,9.0915,2.4782,13.496,1.5776,4.6477,3.706,8.9913,6.3844,13.057,1.7043,2.5871,3.7546,4.9438,5.5767,7.4568,.8256,1.1386,1.5837,2.3546,2.1779,3.6263,1.0069,2.1548,.3527,4.5284-1.7732,6.1352-1.8719,1.4148-3.947,2.5577-5.855,3.9284-2.426,1.7429-4.8229,3.5339-7.1446,5.4126-3.9048,3.1599-7.1261,6.9562-9.9349,11.1054-3.3101,4.8896-5.6445,10.2314-6.9721,15.9677-.5822,2.5154-.764,5.1293-1.0382,7.708-.1716,1.6144-.3457,3.2597-.2199,4.8677,.2329,2.9777,.4587,5.988,1.0981,8.8945,.9897,4.4991,2.3193,8.9236,3.5139,13.3774,.6484,2.4174,.5987,4.7613-1.7004,6.2248-1.3469,.8573-3.0176,1.2697-4.594,1.6896-3.5896,.956-7.3146,1.5049-10.7912,2.7563-3.7848,1.3624-7.4456,3.1578-10.9874,5.0829-4.0866,2.2212-7.557,5.3139-10.7249,8.7203-4.0889,4.3966-7.2142,9.3992-9.5162,14.9464-1.6643,4.0108-2.594,8.2052-3.3051,12.4518-.3317,1.9806-.354,4.0124-.5269,6.0202-.2336,2.7123-.377,5.4376-.7458,8.1317-.3394,2.479-2.0155,4.8065-5.1635,4.5319-4.0542-.3536-8.1099-.7333-12.1732-.924-2.4148-.1133-4.853,.0229-7.2673,.2151-2.6237,.2089-5.2482,.5157-7.8434,.9519-5.4445,.915-10.4598,3.032-15.1777,5.8399-4.7669,2.8369-8.8086,6.5591-12.2811,10.8453-3.7743,4.6586-6.7488,9.8216-9.012,15.3923-.8387,2.0645-1.808,4.0795-2.7936,6.0797-1.1421,2.3176-3.8096,3.5162-6.8047,2.6915-3.0628-.8433-5.5548-2.713-8.3041-4.1079-4.6608-2.3646-9.5623-4.0717-14.6948-4.7558-4.2335-.5643-8.5775-.7109-12.8466-.5051-7.3501,.3544-14.4428,2.0657-21.0108,5.5136-3.9787,2.0886-7.576,4.7213-10.8343,7.8515-2.9242,2.8091-5.9421,5.5366-9.0828,8.0989-2.0945,1.7087-4.7058,1.4032-6.6777-.4214-3.6039-3.3349-7.1484-6.7347-10.7842-10.0341-3.8143-3.4615-8.2541-5.8882-13.2202-7.2054-3.9296-1.0423-7.9113-1.9393-11.9166-2.6295-3.1766-.5474-6.4215-.7117-9.6404-.9965-5.3228-.471-10.493,.2641-15.5804,1.8865-4.6263,1.4754-8.6549,3.9767-12.5757,6.7536-3.1854,2.2561-7.2648,1.5215-8.9239-1.6469-.7048-1.3458-.8779-2.9764-1.2529-4.4874-1.3495-5.4373-3.5-10.5092-7.1459-14.8099-1.7248-2.0346-3.6402-3.9351-5.6384-5.7054-6.9733-6.178-15.6094-9.5156-23.7589-13.6692-3.2435-1.6531-6.7343-1.9624-10.3591-1.4736-2.5835,.3484-5.2124,.357-7.8202,.5304-3.4734,.231-6.9445,.5004-10.4194,.7052-3.2536,.1918-5.0586-2.1884-5.2862-4.8877-.2302-2.7308-.2164-5.4836-.2699-8.2275-.1253-6.4171-1.5246-12.5409-4.4478-18.2512-2.1353-4.1713-4.8109-8.0181-7.9179-11.5344-2.1035-2.3807-4.2069-4.7811-6.5098-6.9621-4.4586-4.2228-9.4527-7.7165-15.211-9.9584-3.6277-1.4124-7.4009-2.2572-11.3091-2.5894-1.7624-.1499-3.6347-.5237-5.1848-1.3237-2.7707-1.43-3.4053-4.887-1.9141-8.0848,1.2561-2.6935,2.5788-5.3745,3.5718-8.1677,1.5671-4.4083,1.9986-9.0382,1.6141-13.6754-.4589-5.5357-1.8652-10.8896-3.9797-16.0258-1.8056-4.3859-3.8417-8.6773-5.6252-13.0716-1.1832-2.9154-3.0713-5.2611-5.4014-7.2389-1.9398-1.6465-4.0713-3.0743-6.166-4.5296-2.8344-1.9693-5.7431-3.8325-8.5614-5.8239-1.0931-.7724-2.1082-1.6957-3.015-2.6825-1.6862-1.8348-1.775-3.8653-.133-6.1336,1.7523-2.4208,3.679-4.7168,5.5602-7.0425,2.3404-2.8934,4.1951-6.0855,5.7443-9.448,1.7311-3.7573,2.7088-7.7576,3.3448-11.8248,.2743-1.7544,.2848-3.5633,.2727-5.3465-.0271-3.9833,.095-7.9884-.2771-11.9439-.64-6.803-2.2991-13.34-5.8612-19.3154-1.8171-3.0481-3.9892-5.7512-6.4346-8.2925-1.3522-1.4052-2.5047-3.0026-3.7472-4.5133,0-1.1994,0-2.3988,0-3.5982,1.1505-2.1912,3.0134-3.5466,5.2273-4.5183,1.8973-.8328,3.8179-1.6312,5.6452-2.6012,4.1559-2.206,7.5352-5.3856,10.4061-9.0443,3.7897-4.8296,6.3169-10.3644,8.2407-16.1623,1.1324-3.4131,2.1385-6.8714,3.0912-10.3397,.8008-2.9153,1.7739-5.8487,1.4447-8.9211-.2751-2.5673-.7252-5.1289-1.2936-7.6489-1.1532-5.1131-2.526-10.1774-3.6328-15.2998-.5428-2.5124-.0849-4.7989,2.9055-6.0511,1.148-.4807,2.3486-.8563,3.552-1.1801,4.2647-1.1473,8.6484-1.9566,12.78-3.4621,3.5448-1.2917,6.9327-3.1552,10.1602-5.1397,3.8412-2.3619,7.1321-5.4776,10.1228-8.861,1.3531-1.5308,2.6545-3.1316,3.7849-4.8301,2.8806-4.3282,5.1188-8.9701,6.6643-13.9584,1.2528-4.0434,1.8549-8.1871,2.2243-12.3706,.2683-3.0385,.2078-6.1094,.55-9.1369,.2302-2.037,1.1171-4.3783,3.9295-4.6321,2.1071-.1902,4.2791-.1891,6.3716,.0968,4.5747,.6251,9.1135,1.4942,13.7654,.8842,2.7302-.358,5.5153-.4401,8.193-1.025,5.8199-1.2714,11.2739-3.5406,16.3264-6.728,4.6223-2.9159,8.7146-6.4219,12.1522-10.6976,3.3481-4.1645,6.0258-8.7063,8.0675-13.6368,.9746-2.3535,1.9046-4.7315,3.0116-7.0227,1.3346-2.7625,3.2352-4.0194,5.5863-3.5404,1.4681,.2991,2.9174,.9661,4.2249,1.7264,4.2404,2.4658,8.47,4.8927,13.2405,6.268,3.5403,1.0206,7.1353,1.6523,10.7875,1.7387,2.9224,.0692,5.8755-.1075,8.777-.4745,3.3762-.427,6.7453-1.0365,10.0568-1.8225,6.4982-1.5424,12.5696-4.0918,17.9742-8.116,2.7309-2.0334,5.2157-4.3309,7.3369-6.9653,1.9508-2.4226,3.599-5.094,6.2866-6.8285,1.1994,0,2.3988,0,3.5982,0Zm-1.266,41.7145c-.0001,.08-.0002,.1599-.0003,.2399-3.783,0-7.5673-.0603-11.3486,.0201-2.7706,.0589-5.5502,.1861-8.3027,.4914-4.0608,.4504-8.1135,1.0096-12.1469,1.6634-4.5642,.7399-9.141,1.47-13.6449,2.4994-8.205,1.8753-16.3165,4.1406-24.1814,7.1594-5.6281,2.1602-11.2309,4.4187-16.7053,6.937-4.9574,2.2804-9.8363,4.7825-14.5475,7.5333-5.1096,2.9834-10.0118,6.3273-14.957,9.5859-7.5206,4.9555-14.3839,10.7561-21.0477,16.7821-3.1523,2.8506-6.1212,5.9172-9.0299,9.0202-3.4388,3.6685-6.7906,7.4244-10.0525,11.2511-2.6032,3.054-5.1162,6.197-7.4838,9.4361-2.4287,3.3226-4.7534,6.7355-6.9046,10.2432-2.9699,4.8425-5.8427,9.752-8.5608,14.7397-3.6445,6.6876-6.8296,13.6093-9.4455,20.7638-2.0412,5.5826-4.0092,11.2063-5.663,16.9123-1.6535,5.7049-2.9445,11.5191-4.2607,17.3157-.7199,3.1706-1.2483,6.3919-1.7066,9.6126-.4383,3.0802-.709,6.186-.9899,9.2863-.3529,3.8946-.8845,7.7937-.9064,11.6933-.0442,7.8457-.3921,15.7039,.4189,23.5386,.2238,2.1621,.2472,4.3469,.5172,6.502,.4881,3.897,1.0092,7.7936,1.6707,11.664,.739,4.324,1.531,8.6459,2.5115,12.9203,1.6808,7.3278,3.6723,14.5837,6.3879,21.6002,2.4996,6.4585,4.9697,12.9533,7.9538,19.1925,3.112,6.5066,6.6692,12.817,10.3233,19.0421,2.6564,4.5254,5.6821,8.8476,8.7401,13.1195,2.3573,3.293,4.9388,6.4367,7.5677,9.5214,3.6051,4.23,7.2469,8.4384,11.0671,12.4721,2.9357,3.0998,6.1369,5.9532,9.2842,8.8463,2.6503,2.4363,5.2593,4.949,8.1234,7.1147,5.6329,4.2595,11.3155,8.4743,17.1951,12.3801,4.9225,3.2699,10.063,6.2449,15.2762,9.0343,4.9031,2.6236,9.9812,4.9376,15.0657,7.2007,7.1234,3.1706,14.4773,5.7182,21.9658,7.9183,9.2663,2.7224,18.6331,4.9114,28.219,6.1212,4.5676,.5765,9.1288,1.2449,13.713,1.6359,4.0324,.3439,8.0918,.4385,12.1413,.4947,3.2217,.0447,6.4467-.1252,9.6698-.2176,2.1844-.0626,4.3713-.105,6.551-.2487,2.8365-.1871,5.6739-.4038,8.4983-.7201,3.7115-.4155,7.439-.7844,11.1087-1.4531,6.0465-1.102,12.0996-2.2358,18.064-3.7049,9.1265-2.2479,18.0832-5.1123,26.6959-8.9039,6.5291-2.8743,13.0548-5.8008,19.3644-9.1181,7.3281-3.8528,14.4157-8.1763,21.0046-13.2234,5.7986-4.4418,11.5578-8.9454,17.1555-13.6352,3.1692-2.6552,6.0427-5.6774,8.932-8.6485,3.1554-3.2448,6.2484-6.5573,9.2322-9.9599,2.6753-3.0508,5.2928-6.1695,7.7055-9.4287,3.2204-4.3504,6.3559-8.7773,9.273-13.3346,2.9348-4.585,5.6972-9.2948,8.2751-14.0898,2.3556-4.3815,4.5443-8.8736,6.479-13.4553,2.4807-5.8745,4.8-11.8299,6.8865-17.8551,2.6266-7.5845,4.7593-15.3247,6.1467-23.2485,.879-5.0204,1.8328-10.0302,2.5799-15.0704,.5542-3.7387,.9243-7.5118,1.2033-11.2824,.2811-3.7994,.4883-7.6151,.4747-11.4227-.0177-4.9682-.2372-9.9376-.46-14.9024-.1596-3.5564-.3331-7.1217-.7435-10.6548-.489-4.209-1.1204-8.41-1.9032-12.5743-1.0269-5.463-2.017-10.9533-3.4709-16.3102-1.7391-6.408-3.7322-12.7677-6.0115-19.0035-3.1548-8.6308-6.8248-17.0728-11.4131-25.0519-3.6554-6.3567-7.4825-12.6246-11.4849-18.7681-2.546-3.908-5.4389-7.6079-8.3798-11.2361-3.6545-4.5085-7.4416-8.9163-11.3207-13.2335-2.4825-2.7627-5.1755-5.3459-7.8836-7.8932-2.4757-2.3288-5.0504-4.5593-7.6681-6.7284-3.669-3.0402-7.3436-6.0832-11.1554-8.9386-3.4504-2.5847-7.002-5.0579-10.6643-7.3301-4.8322-2.9981-9.7674-5.8402-14.7511-8.5807-3.4664-1.9061-7.0422-3.6323-10.6537-5.2502-4.2891-1.9215-8.6402-3.7138-13.016-5.4308-7.0404-2.7626-14.264-5.0028-21.624-6.706-6.5597-1.518-13.1795-2.8238-19.8234-3.9151-5.0457-.8289-10.1637-1.2566-15.2636-1.7026-2.9282-.2561-5.884-.2086-8.828-.2675-1.6784-.0335-3.3581-.0061-5.0372-.0061Z" style="fill: #e51010;"/>
  <path d="M48.0009,243.4996c0-1.5591-.0451-3.1197,.0089-4.6769,.1335-3.8489,.1471-7.7122,.5149-11.5403,.4584-4.7705,1.0723-9.5379,1.8948-14.2585,1.0483-6.0165,2.1958-12.0278,3.6336-17.9606,1.1586-4.7809,2.7005-9.4795,4.2774-14.1453,1.5139-4.4794,3.1092-8.9493,5.0001-13.2787,2.2623-5.1797,4.7694-10.261,7.3633-15.2854,3.6775-7.1235,7.8871-13.9368,12.6681-20.3806,2.9499-3.9759,5.8625-7.9876,8.9891-11.8224,4.8189-5.9104,10.1322-11.3828,15.6594-16.6299,3.1667-3.0063,6.4812-5.8673,9.85-8.6473,2.8148-2.3228,5.7616-4.4937,8.7293-6.6211,3.538-2.5362,7.0816-5.0804,10.7677-7.3899,4.1557-2.6036,8.4373-5.0137,12.7279-7.393,6.4902-3.5989,13.2951-6.5408,20.2027-9.2249,6.7508-2.6232,13.6171-4.9298,20.6644-6.6354,4.8299-1.1689,9.6725-2.2984,14.5413-3.2887,2.8825-.5863,5.8192-.9357,8.7455-1.2693,4.0738-.4644,8.1527-.9793,12.2436-1.1748,6.3596-.304,12.7305-.4399,19.0978-.4842,3.4469-.024,6.9032,.201,10.3424,.4744,3.6899,.2934,7.3871,.6336,11.0408,1.2096,4.9909,.7868,9.9828,1.6466,14.9028,2.7842,5.9426,1.3741,11.8709,2.8771,17.6921,4.6884,4.9636,1.5445,9.8346,3.445,14.6228,5.4793,5.2032,2.2105,10.3307,4.6257,15.3647,7.1992,4.0067,2.0483,7.92,4.3189,11.7007,6.7605,5.3677,3.4665,10.6423,7.088,15.826,10.8245,2.9684,2.1397,5.7698,4.5371,8.4835,6.9981,4.3464,3.9419,8.6692,7.9229,12.7899,12.0967,3.1921,3.2331,6.1941,6.6787,9.0398,10.2231,3.9354,4.9018,7.7681,9.897,11.4172,15.0146,3.9391,5.5242,7.4578,11.3348,10.4947,17.4119,2.6163,5.2356,5.3138,10.4445,7.6204,15.8176,3.056,7.119,5.721,14.4011,7.6739,21.9206,.8946,3.4445,1.9599,6.8494,2.7275,10.3209,.8877,4.0151,1.5731,8.0769,2.27,12.1315,.5386,3.1335,1.0073,6.281,1.4154,9.4342,.2584,1.9965,.4013,4.0121,.503,6.0239,.1986,3.9259,.3348,7.8551,.4914,11.7831,.0855,2.1436,.2625,4.2899,.2168,6.4311-.0796,3.7298-.2317,7.4612-.4808,11.1834-.2238,3.3441-.5441,6.686-.9605,10.0115-.3653,2.9176-.8387,5.8278-1.4138,8.7115-1.0566,5.2976-2.0432,10.6198-3.3945,15.845-1.3404,5.1827-3.0262,10.2806-4.6819,15.3763-2.9067,8.9458-6.7873,17.4915-11.2222,25.7627-2.8338,5.2851-5.9243,10.4532-9.215,15.4669-3.2921,5.0159-6.8615,9.863-10.5278,14.6156-2.5711,3.333-5.4719,6.4164-8.2942,9.5493-2.3561,2.6154-4.7407,5.2131-7.2446,7.6849-2.2532,2.2242-4.6659,4.2892-7.045,6.3827-2.1939,1.9305-4.3858,3.8694-6.6709,5.6888-2.9509,2.3495-5.9475,4.6475-9.0094,6.8496-3.0249,2.1755-6.0794,4.3288-9.2583,6.2664-4.3208,2.6336-8.6966,5.1989-13.1875,7.5257-5.1569,2.6718-10.3572,5.3191-15.7361,7.4872-6.3417,2.5564-12.8258,4.8192-19.377,6.7785-5.9133,1.7685-11.9759,3.0711-18.0192,4.3611-4.292,.9162-8.6497,1.5545-13.0003,2.1557-2.8909,.3995-5.818,.5669-8.7346,.7441-3.5647,.2165-7.1351,.3434-10.7037,.4921-2.3031,.096-4.6095,.2634-6.9108,.2173-3.6099-.0724-7.2231-.2129-10.8232-.4814-4.049-.302-8.1056-.6345-12.1224-1.2089-8.1471-1.165-16.2201-2.7123-24.1841-4.8515-7.3857-1.9838-14.6508-4.3213-21.7149-7.2151-5.4804-2.245-10.8732-4.7334-16.1798-7.3658-7.3211-3.6316-14.2994-7.89-21.0181-12.5372-4.2301-2.9258-8.3391-6.0393-12.3729-9.2321-2.8505-2.2562-5.5013-4.7672-8.2088-7.2005-2.143-1.9258-4.3866-3.7696-6.323-5.8895-4.9521-5.4217-9.847-10.9014-14.5983-16.4992-5.526-6.5105-10.2948-13.5953-14.6118-20.9422-3.3227-5.6548-6.3272-11.5131-9.1862-17.4197-3.7244-7.6945-6.706-15.7036-9.2301-23.8751-2.1387-6.9239-4.0034-13.9175-5.2033-21.0734-.7265-4.333-1.5387-8.6554-2.1113-13.0091-.422-3.2089-.5611-6.458-.7501-9.6937-.2642-4.5221-.4576-9.0483-.6812-13.5727,.0641-.0032,.1281-.0063,.1922-.0095Zm191.1426,177.4469c47.8772-.7406,88.9371-16.6959,123.0158-49.0935,34.9852-33.2595,53.9528-74.385,55.098-122.7583,1.2665-53.4956-17.9239-99.2136-56.8356-135.912-32.9782-31.1024-72.7749-46.9657-118.1573-47.1103-49.062-.1564-91.7769,16.8544-126.8883,51.2539-33.4143,32.7367-51.2045,72.9717-52.6482,119.7298-1.5133,49.0131,14.5343,92.0769,48.1761,127.8433,34.8358,37.0358,78.3129,55.1529,128.2396,56.0471Z" style="fill: #e51010;"/>
  <path d="M185.1273,163.6263c1.5884,.7494,3.0405,1.414,4.4744,2.1155,2.757,1.3488,4.6909,3.527,6.169,6.1648,1.6834,3.0042,2.9833,6.1936,3.4189,9.5858,.3497,2.7236,.4259,5.5627,.0691,8.2777-.524,3.9879-1.3647,7.959-2.4176,11.8433-.6163,2.2736-1.7629,4.4456-2.9304,6.517-1.4577,2.5864-3.0922,5.0863-4.8104,7.5101-3.7596,5.3039-8.6783,9.0533-15.1759,10.2448-4.9805,.9133-9.7799,.0532-13.964-2.8844-2.5834-1.8137-3.7803-4.6828-4.4821-7.6944-1.1508-4.938-.0143-9.6719,1.361-14.389,.9738-3.3403,2.1557-6.5935,4.3718-9.3074,.8321-1.019,2.0738-1.7383,3.2164-2.4543,.5771-.3617,1.7334,.4906,2.0109,1.3782,.5017,1.6048,1.0413,3.2034,1.4265,4.8373,.308,1.3065,1.3472,1.4431,2.3691,.8172,1.5484-.9485,2.6996-2.2775,3.2456-4.0666,.7186-2.3544,1.5462-4.6796,2.1657-7.0593,.7286-2.7986-.7556-7.2166-3.2703-9.2512-2.7319-2.2102-5.8195-2.6877-9.1248-2.3488-.4849,.0497-1.1542,.7229-1.3048,1.235-1.5112,5.1403-2.8452,10.3336-4.3995,15.4602-1.99,6.5639-4.2971,13.0307-7.423,19.1459-2.1417,4.1898-4.3408,8.3986-7.0059,12.2595-3.0103,4.3609-6.7066,8.1825-11.0119,11.3985-2.2056,1.6475-4.2543,3.5518-6.8425,4.5238-2.7722,1.0412-5.6403,1.8645-8.517,2.5802-3.3276,.8279-6.7592,.9114-10.1662,.7283-5.5-.2954-10.9417-1.0953-15.5881-4.3192-5.4178-3.7591-9.5769-8.4898-10.6273-15.3517-.4152-2.7122-.1532-5.3491,.2005-8.046,.3812-2.9063,.8208-5.7903,2.1209-8.3996,1.5873-3.1858,3.2547-6.3702,5.2577-9.3022,3.9023-5.7123,9.2781-9.8569,15.3478-13.033,4.4297-2.318,9.2504-3.6524,14.1665-4.5191,1.4414-.2542,2.9726-.1359,4.444,.0052,.4082,.0392,1.0145,.7376,1.0756,1.1943,.2465,1.8427,.0224,3.5854-1.3464,5.0786-1.1645,1.2704-2.0176,2.7411-2.468,4.4738-.55,2.1162,.1748,3.8841,1.2181,5.5717,1.4984,2.4239,3.943,3.4619,6.599,3.4673,2.7235,.0055,5.3733-.815,7.4388-2.7806,4.0282-3.8333,6.9586-8.4267,9.0705-13.5446,1.8826-4.5622,3.8132-9.11,5.5079-13.7427,1.5301-4.1828,2.7238-8.4873,4.1489-12.7101,1.6485-4.8847,3.3876-9.7387,5.2282-15.0091-3.233,1.4896-6.3095,2.7288-9.2068,4.2985-2.2986,1.2453-4.5067,2.7408-6.5156,4.4128-1.7239,1.4348-3.4598,3.015-4.2675,5.2352-.6828,1.8768,.3308,3.8851,2.1885,4.5605,3.2419,1.1787,3.7963,4.0202,1.4438,6.5728-4.497,4.8792-10.1634,7.674-16.4813,9.1056-3.6376,.8243-7.4445,.7196-11.0777-.2744-2.782-.7611-4.2396-3.0279-5.0186-5.6715-.7398-2.5107-.0075-4.9026,.9122-7.2311,1.8775-4.7534,4.8778-8.7453,8.2248-12.5685,4.3934-5.0184,9.6396-8.9735,15.0835-12.6971,5.7343-3.9222,11.9435-6.9568,18.5387-9.1312,3.3387-1.1007,6.7748-1.9063,10.167-2.8447,.0379-.0105,.08-.0225,.1173-.0163,2.7844,.457,3.7959-1.5236,4.9403-3.4698,3.0624-5.2082,6.3204-10.2872,10.8239-14.4132,3.999-3.6639,8.6951-5.9922,14.0018-7.0627,1.307-.2637,2.65-.3644,3.9812-.4899,2.7884-.263,4.5735,1.2512,5.777,3.5189,2.1291,4.0121,2.2026,8.1016,.2059,12.216-.9314,1.9194-1.9381,3.7376-3.8069,4.9569-3.5132,2.2922-6.7,1.6854-8.5841-2.051-1.4245-2.8251-4.0509-2.9437-6.2768-1.3806-2.9628,2.0805-5.5134,5.1986-6.3042,8.0186,1.8347,.6003,3.6656,1.237,5.5194,1.798,3.7431,1.1328,7.1667,2.9235,9.9713,5.6062,4.2316,4.0477,6.7668,8.9678,6.0658,15.0126-.4669,4.0263-2.2603,7.529-4.9995,10.5495-2.5198,2.7786-5.1293,5.4353-8.6702,7.2388Zm-19.6966-2.2119c.657-.0829,1.095-.0836,1.5004-.1988,1.6757-.476,3.5095-.6957,4.9779-1.5424,3.5765-2.0624,5.4706-5.3777,6.1271-9.4389,.944-5.8387-1.3621-9.7953-6.9719-11.2813-.9271,3.7135-1.8509,7.427-2.7819,11.1387-.9373,3.737-1.8816,7.4723-2.8517,11.3226Z" style="fill: #e51010;"/>
  <path d="M140.1484,286.516c-2.6301-.9626-5.3683-2.0186-8.1433-2.967-3.6035-1.2317-7.2554-2.3022-11.1022-2.4289-1.3267-.0437-2.6691-.112-3.9812,.0361-1.3984,.1579-2.2739,1.1172-2.7538,2.4218-.5691,1.5471,.1058,2.8237,1.1273,3.816,1.5446,1.5005,3.2216,2.8739,4.9122,4.2131,3.708,2.9376,2.7651,5.5054-.181,7.6675-2.4998,1.8345-5.4658,2.5364-8.5302,2.6939-1.8432,.0947-3.6952,.0113-5.5433,.0187-4.3134,.0174-8.3894-1.1386-12.4075-2.5416-4.7086-1.6441-8.718-4.3907-12.0895-8.0306-3.6071-3.8943-5.3298-8.541-4.8752-13.853,.237-2.7691,1.5459-5.2078,3.3253-7.2884,4.1115-4.8073,9.6027-7.3161,15.6451-8.4625,3.2018-.6075,6.5829-.7216,9.841-.4834,6.0505,.4424,11.8981,1.9667,17.4486,4.4939,5.4295,2.4722,10.9052,4.8504,16.265,7.4657,3.595,1.7541,7.0144,3.8662,10.5403,5.7663,.3503,.1888,.9502,.1499,1.3413-.0103,3.191-1.3067,6.2748-2.9482,9.5563-3.9432,4.4458-1.348,8.996-2.4841,13.5814-3.1958,3.433-.5329,7.0114-.5156,10.4904-.2636,3.943,.2856,7.8809,.9432,11.7588,1.741,3.699,.761,6.9004,2.7241,9.8922,5.0028,4.0408,3.0775,6.5028,7.2017,7.3631,12.1155,.7441,4.2503,.1171,8.4399-1.8558,12.3801-1.4162,2.8284-3.2531,5.2616-5.8821,7.0609-3.2411,2.2183-6.6653,3.5528-10.7335,2.8762-5.6533-.9401-10.8392-3.0039-15.7456-5.9074-2.2311-1.3203-4.5594-2.4767-6.8457-3.7036-3.2546-1.7467-6.5164-3.4802-9.7628-5.2419-.7353-.399-1.2408-.3094-1.8793,.2892-3.2997,3.0936-5.7227,6.8073-7.8287,10.7612-1.6797,3.1535-3.1422,6.3779-3.9889,9.8829-.8322,3.4448-1.4121,6.92-1.0827,10.4387,.3104,3.3159,1.2301,6.4926,2.7458,9.5289,1.5908,3.1868,3.6093,6.0044,6.1694,8.4326,2.5362,2.4055,5.4069,4.3427,8.8987,5.0193,3.7201,.7209,7.4974-.8519,8.461-3.8677,1.2782-4.0008,1.0618-8.1756-1.2377-11.9725-.9673-1.5972-2.4613-2.2432-4.238-2.3406-1.9408-.1064-3.9052-.0109-5.822-.2745-3.3546-.4612-4.6953-2.7208-3.8642-6.1107,.7828-3.1927,3.1888-4.9701,5.8024-6.4491,3.1815-1.8003,6.7078-2.5407,10.3261-2.9766,5.4299-.6542,10.6086,.207,15.5421,2.4486,2.7059,1.2294,4.952,3.0843,6.9472,5.3667,2.7405,3.1349,4.4059,6.7799,5.6762,10.624,.7692,2.3275,1.1949,4.7823,1.612,7.2078,.3066,1.7835,.4874,3.6129,.4821,5.4212-.0137,4.6672-.7343,9.2558-2.0082,13.7415-1.2486,4.3964-3.0371,8.5427-5.5614,12.4004-2.3962,3.6618-5.609,6.2755-9.2702,8.5581-3.9569,2.4669-8.2222,3.2684-12.709,2.764-4.6782-.526-9.2587-1.6066-13.554-3.6615-5.2985-2.5349-10.2031-5.6702-14.2346-9.963-3.4755-3.7006-6.7559-7.5871-10.0599-11.4452-2.9853-3.486-5.1788-7.4891-7.2306-11.5656-1.3052-2.5932-2.705-5.1587-3.7504-7.8575-1.2406-3.2026-2.1919-6.5104-2.6576-9.9544-.4663-3.4482-1.1746-6.8818-.8969-10.3701,.2714-3.409,.5299-6.8534,1.2472-10.1847,1.1658-5.4139,3.4348-10.4567,6.6494-14.9616,2.0887-2.9271,4.6224-5.5364,6.9518-8.2923,.5517-.6527,1.0834-1.3223,1.7075-2.086Zm30.9476,3.944c-.0213,.1506-.0425,.3011-.0638,.4517,1.2154,.5871,2.3959,1.2658,3.6527,1.7444,4.1566,1.5831,8.2545,3.3425,12.7819,3.7223,2.2667,.1902,4.4374-.0249,6.3342-1.2075,2.8099-1.7519,2.4478-4.5559-.0946-6.2353-1.56-1.0304-3.256-1.3566-4.995-1.4716-2.1783-.144-4.4415-.3833-6.5457,.0347-3.7384,.7426-7.3848,1.9489-11.0696,2.9612Z" style="fill: #e51010;"/>
  <path d="M381.9981,324.4027c-1.2317,1.5158-2.3749,3.1151-3.7126,4.5307-3.1948,3.381-6.3747,6.7886-9.7595,9.9742-3.6731,3.4572-7.5662,6.681-11.3728,9.9959-3.7242,3.2431-7.717,6.0972-12.2421,8.1209-.9764,.4367-2.1263,.8584-3.1428,.7562-2.2025-.2217-2.9857-1.8099-2.4539-4.1775,.4972-2.2135,.9167-4.4454,1.3183-6.6785,.0578-.3216-.1174-.9524-.2872-.9912-.3375-.0771-.8617,.0414-1.1076,.2835-1.8894,1.8599-3.7642,3.7372-5.5779,5.6707-2.1597,2.3024-4.2378,4.6811-6.3822,6.9981-1.5401,1.6642-3.0315,3.3937-4.7225,4.8933-2.5333,2.2465-5.1397,4.43-7.8684,6.4311-2.8686,2.1036-6.2145,2.8417-9.7556,2.526-1.6481-.1469-2.6367-1.2991-3.4742-2.5877-.2962-.4558-.5483-.9404-.8748-1.506-2.0308,1.6636-3.9971,3.2107-5.8922,4.8405-3.5229,3.0298-7.5096,4.9986-12.0664,6.053-3.6849,.8526-7.0286,.664-10.2254-1.4535-2.1101-1.3976-2.9406-3.4893-3.4711-5.8069-.6138-2.6816,.0715-5.2165,.6982-7.7948,1.1924-4.9057,2.2255-9.8498,3.394-14.7615,1.4487-6.0892,2.989-12.1567,4.4499-18.2431,1.2605-5.2513,2.4459-10.5205,3.6995-15.7735,1.6254-6.8113,3.2987-13.6112,4.9257-20.4221,.9367-3.9211,1.8448-7.8493,2.7105-11.7865,.1511-.687,.0489-1.435,.0252-2.1536-.0278-.8409-1.2069-1.5407-2.3992-1.2881-.9446,.2001-1.8306,.6676-2.7521,.9893-.4569,.1595-.935,.2583-1.4035,.3845-.1197-.1081-.2394-.2161-.3591-.3241,.3345-.6901,.5388-1.4944,1.026-2.0507,2.1888-2.4988,5.0575-4.1305,7.865-5.7904,4.9231-2.9106,10.2022-5.0312,15.7664-6.3363,3.6841-.8642,7.2652-.6515,10.0579,2.3907,1.4055,1.5311,2.0067,3.4049,1.47,5.448-1.7784,6.7692-3.5685,13.5363-5.4603,20.2743-2.7919,9.9435-5.6403,19.8714-8.5381,29.7845-1.0323,3.5312-2.3485,6.9788-3.4115,10.5019-1.6271,5.3927-3.143,10.8189-4.7156,16.2281-.3386,1.1649-.7038,2.3227-1.0834,3.475-.2441,.7409-.3859,1.5869,.2624,2.0371,.4608,.32,1.2452,.1897,1.8871,.2256,.2708,.0152,.5498-.0428,.8197-.0954,2.0416-.3976,2.1574-.8419,2.5482-2.8863,.5417-2.834,1.3124-5.6484,2.2635-8.3741,1.2372-3.5455,2.5616-7.0858,4.1948-10.4606,1.5151-3.1307,3.4036-6.0932,5.2742-9.0366,3.1086-4.8914,6.7321-9.3913,11.043-13.2786,5.5073-4.9661,11.6327-8.9401,19.1094-10.0847,4.2918-.657,8.685-.8656,12.8597,.899,.7857,.332,1.5573,.7702,2.2189,1.3039,.7859,.6339,1.3424,.742,2.0866-.0885,2.2299-2.4889,4.8158-4.5886,7.7035-6.2481,3.7912-2.1787,7.4935-4.5835,11.8257-5.6321,.7976-.1931,1.6243-.3567,2.4394-.366,1.3369-.0153,2.0638,.8932,1.6244,2.1415-1.1029,3.1333-2.0661,6.3516-3.5338,9.3136-3.6634,7.3928-7.6159,14.6417-11.3592,21.9958-.8808,1.7304-1.4196,3.639-2.0616,5.4845-.2553,.734,.1024,1.2641,.8883,1.0709,.7305-.1796,1.4907-.5008,2.0765-.9638,3.5488-2.8042,6.9783-5.7774,11.2184-7.547,.4661-.1945,.9856-.2609,1.4803-.3867l.2356,.3519Zm-50.5356,7.7273c-.3912,2.487,2.0324,4.4138,3.9769,3.928,1.5768-.394,3.1377-.9688,4.5986-1.6827,2.2274-1.0885,4.0224-2.7622,5.5081-4.7466,1.809-2.4163,3.6644-4.7783,4.0377-7.9674,.2518-2.1502-.9369-3.856-3.1005-3.8311-4.9212,.0567-8.7576,2.2518-11.6819,6.131-1.791,2.3758-3.3162,4.8732-3.3388,8.1687Z" style="fill: #e51010;"/>
  <path d="M301.7929,162.1847c2.0086,0,3.8832-.0046,5.7579,.0011,2.8121,.0086,5.4892,.4905,7.6875,2.4159,2.2969,2.0118,4.7986,5.8974,3.8005,9.4705-.6577,2.3544-3.0363,4.3882-5.5192,4.3638-4.0229-.0395-8.046-.1186-12.0668-.2493-1.0666-.0347-1.337,.382-1.4079,1.3647-.2669,3.7011-.6081,7.397-.9369,11.0935-.3111,3.4973-.6494,6.9921-.9614,10.4893-.3297,3.6963-.6413,7.3943-.9629,11.0913-.3181,3.657-.6369,7.314-.9593,10.9706-.1006,1.1407-.1392,2.2932-.3347,3.4179-.6311,3.6314-2.9514,6.0514-6.0234,7.7293-3.4745,1.8978-7.3092,2.8032-11.2074,3.3354-3.0419,.4152-6.1089,.6434-9.1623,.9778-1.1355,.1244-1.6513-.262-1.515-1.359,.2175-1.7515,.5395-3.4897,.7823-5.2384,.3135-2.2582,.6016-4.52,.884-6.7823,.3167-2.5373,.6243-5.0758,.918-7.6158,.267-2.3091,.506-4.6215,.7646-6.9316,.3065-2.7382,.626-5.4749,.9301-8.2133,.2566-2.3109,.4666-4.6274,.7567-6.934,.3528-2.8061,.7934-5.6012,1.1466-8.4072,.2216-1.7607,.3528-3.5328,.5238-5.2998,.1288-1.3307,.2564-2.6614,.3996-4.1481-1.9654,0-3.9482-.0389-5.9289,.0087-3.366,.0809-5.6598-1.6691-7.1023-4.4564-1.7998-3.4781-1.4848-6.9378,.9459-10.0767,1.2481-1.6117,3.0632-2.198,5.0172-2.1974,2.7833,.0008,5.5671,.1254,8.3495,.2266,1.1428,.0416,1.6706-.2778,1.9776-1.5724,1.4704-6.2013,2.866-12.4417,4.8031-18.5037,1.3625-4.2639,3.1914-8.4758,5.4608-12.3287,2.897-4.9185,6.9188-8.9134,12.5608-10.8014,2.8736-.9616,5.8231-.7946,8.7981-.4992,3.5107,.3486,6.7668,1.4394,9.7704,3.1948,1.922,1.1233,3.7834,2.4242,5.4483,3.8981,3.6069,3.1932,6.7691,6.775,8.6684,11.3049,1.5299,3.6489,1.5968,8.3645-1.6935,10.975-.9374,.7437-2.1956,1.3762-3.3597,1.4833-2.9574,.2721-5.9461,.313-8.7968-.8738-2.8588-1.1903-4.8178-3.2921-6.3036-5.9331-1.3737-2.4419-2.0337-5.0803-2.3234-7.8413-.0977-.9315-.2955-1.853-.4584-2.7772-.1503-.8529-.6472-.8399-1.3146-.5561-1.2497,.5315-2.0042,1.5247-2.4495,2.7262-1.0452,2.82-2.1794,5.6037-2.5808,8.6364-.437,3.3009-1.1362,6.5663-1.6207,9.862-.469,3.1903-.8136,6.3989-1.2017,9.6008-.0324,.2678,.02,.5459,.0396,.9579Z" style="fill: #e51010;"/>
  <path d="M359.3642,173.2808c1.9929-3.1496,5.0049-4.2815,8.3559-4.8721,2.5023-.441,4.9645-.3625,7.3461,.5134,2.0485,.7533,3.6106,2.1109,4.2589,4.2704,.9556,3.1833,1.9329,6.3655,2.7148,9.5932,.3398,1.4026,.2702,2.9163,.2946,4.3811,.0955,5.7326,.6334,11.4155,1.9562,17.0002,.2558,1.0798,.6757,2.2195,1.3431,3.0813,1.1901,1.5366,2.979,1.4994,4.6776,1.0707,1.7767-.4485,3.4776-1.2168,5.2641-1.6015,1.7881-.385,3.6234-.3446,5.4563,.0412,2.4713,.52,2.6592,2.9215,1.8072,4.5534-1.2119,2.321-3.3617,3.692-5.4848,5.0776-4.4992,2.9365-9.4809,4.6612-14.7012,5.6427-3.6226,.6811-7.3052,.7496-11.0082,.3592-2.3193-.2446-4.468-.8009-6.4799-1.9519-2.1991-1.2582-3.5878-3.1602-4.3529-5.5305-.5994-1.8571-1.0812-3.7526-1.6976-5.6037-.682-2.0477-2.3383-2.4211-3.9243-.923-1.8995,1.7944-3.6879,3.7184-5.6849,5.3951-3.948,3.3147-8.0977,6.3659-13.0333,8.0911-1.6628,.5812-3.3845,.8072-5.1985,.5222-1.3715-.2155-2.8311,.1324-4.2036-.0801-3.6643-.5674-6.8342-1.9885-9.2706-5.0451-2.2591-2.8343-3.5559-5.9907-4.1721-9.4624-.2888-1.6275-.1995-3.3196-.3235-4.9793-.3886-5.2017,.7136-10.203,2.0217-15.175,1.0737-4.081,2.752-7.891,4.9499-11.5068,1.6848-2.7715,3.4067-5.4739,5.8126-7.6921,2.7661-2.5502,5.9278-4.1439,9.7133-4.618,4.2929-.5376,8.2249,.4171,12.1374,2.1031,4.2064,1.8126,7.7644,4.5568,11.4256,7.3455Zm-9.186,22.5189c3.2451-.0234,5.3282-1.3145,6.7384-3.7553,1.679-2.906,.5574-6.2966-1.6996-8.722-2.0565-2.21-4.707-3.2047-7.6518-3.419-1.8683-.1359-3.6709,.3052-4.9454,1.7406-2.8247,3.1814-2.8769,7.7329,.1529,11.1617,2.1303,2.4108,4.991,2.5391,7.4055,2.994Z" style="fill: #e51010;"/>
  <path d="M274.2185,337.1193c-.0972,7.0421-1.5013,12.9179-3.8826,18.6011-2.0106,4.7986-5.0345,8.9331-8.1016,13.0784-2.2927,3.0986-5.1641,5.5654-8.1913,7.7881-4.1416,3.0409-8.774,5.1415-13.988,5.7794-6.9143,.8459-13.3847-.4219-19.2061-4.2129-2.0484-1.3339-3.8251-3.2096-5.4042-5.1059-1.6961-2.0367-3.307-4.2522-4.4169-6.64-1.1731-2.5236-1.8963-5.3031-2.4753-8.0428-.567-2.6829-.8972-5.4506-.9814-8.1919-.0994-3.2347,.6741-6.3835,1.6231-9.4867,1.7347-5.6724,4.5407-10.754,8.7878-14.8592,3.8531-3.7245,8.1476-6.9267,13.4476-8.4555,2.4378-.7032,4.8293-1.57,7.2754-2.2401,1.0509-.2879,2.1856-.3449,3.2849-.3661,2.6056-.0501,5.2289-.2025,7.816,.0218,5.8068,.5035,11.3207,1.8581,16.0679,5.6153,2.347,1.8575,4.3728,3.9877,5.5636,6.6027,1.5644,3.4355,3.2642,6.9643,2.7813,10.1142Zm-39.6615,5.2848c-.0129,2.2184,.4707,4.4551,2.0865,6.1256,3.5095,3.6285,7.8627,2.5997,10.8702-.6374,2.5815-2.7785,3.8369-6.127,2.7392-10.0765-.4736-1.704-.9194-3.3621-2.4471-4.3922-3.6899-2.4882-8.1762-1.0239-10.6667,1.7232-1.7729,1.9554-2.6194,4.4464-2.5821,7.2574Z" style="fill: #e51010;"/>
  <path d="M199.1626,199.4606c.207-5.2605,1.513-10.1904,3.5401-14.9862,1.5266-3.6117,3.5345-6.9415,5.9123-10.0063,3.1357-4.0417,6.8567-7.5483,11.4-9.9797,3.8765-2.0746,7.9964-3.4917,12.4311-4.0219,5.0814-.6075,10.0434-.2781,14.8997,1.2786,3.2981,1.0573,6.1612,2.8992,8.7266,5.2324,2.409,2.191,4.4156,4.6717,5.9115,7.5718,1.6042,3.1101,2.5349,6.4019,2.8253,9.885,.1376,1.6501,.5125,3.3068,.4308,4.9431-.1585,3.1747-.5557,6.3337-1.632,9.3683-1.6455,4.6395-3.8469,8.9376-7.2759,12.549-3.1612,3.3292-6.5309,6.4217-10.6046,8.5718-3.5726,1.8856-7.3251,3.4294-11.3906,3.9042-3.4463,.4025-6.9245,1.0231-10.363,.8891-5.5011-.2145-10.8854-1.5174-15.3948-4.839-4.4347-3.2666-7.3506-7.7496-8.4628-13.2197-.4773-2.3477-.6452-4.7583-.9536-7.1404Zm42.8386-13.8669c-.2202-1.0667-.3317-2.1706-.6808-3.1934-1.1206-3.2823-3.495-4.9583-6.7254-4.8629-2.204,.0651-4.1161,1.0883-5.6371,2.8058-3.331,3.7612-4.1466,8.281-1.0466,12.3936,1.4715,1.9522,3.7764,2.8674,5.9514,2.4385,4.8897-.9642,8.0276-4.1092,8.1386-9.5817Z" style="fill: #e51010;"/>
</svg>