<?xml version="1.0" encoding="UTF-8"?>
<svg id="Calque_2" data-name="Calque 2" xmlns="http://www.w3.org/2000/svg" width="697.5202mm" height="705.2566mm" viewBox="0 0 1977.2226 1999.1527">
  <g id="Calque_1-2" data-name="Calque 1">
    <path d="M993.4977,0c10.3616,4.0488,17.8749,11.6068,25.1532,19.7035,22.33,24.8408,47.594,46.0918,77.6049,61.1848,51.5982,25.9496,104.6174,26.7196,158.2368,7.4875,15.8903-5.6995,30.9267-13.7669,46.4005-20.6459,5.5939-2.4868,11.1639-5.2426,17.0242-6.8673,10.1893-2.8247,19.0464,.3663,25.0584,8.9384,3.8594,5.5028,6.805,11.8037,9.2823,18.0927,15.3674,39.0114,36.8866,73.7629,69.3033,101.0196,30.9411,26.0159,66.7186,40.6371,106.8057,45.2193,24.7028,2.8237,49.1665,1.3031,73.5952-2.7129,5.233-.8603,10.5894-1.3483,15.8888-1.3462,10.896,.0043,18.0729,4.48,20.0231,15.0746,2.4825,13.486,3.6341,27.3284,4.0447,41.0565,.5372,17.9644,2.484,35.6668,9.2354,52.2754,5.605,13.7885,11.8354,27.5908,19.8223,40.0873,16.5874,25.9536,37.3321,48.5435,61.0406,68.273,31.1211,25.8983,67.017,39.9828,107.2948,43.8087,16.8,1.5958,23.376,11.4221,20.3288,28.1034-.9512,5.2063-2.1887,10.4746-4.1696,15.3598-12.2559,30.2248-16.1223,61.568-13.6062,93.9417,2.6879,34.5822,11.4365,67.4107,27.4267,98.2413,14.15,27.2823,34.1433,49.0256,60.9593,64.3391,8.5221,4.8665,17.0061,9.8224,25.2721,15.1054,4.7374,3.0278,9.3938,6.3948,13.3979,10.3129,8.7324,8.5449,10.4325,18.3514,4.6637,29.1164-3.2678,6.0978-7.6909,11.6414-12.0238,17.0928-24.3493,30.6364-42.631,64.2544-50.5617,102.9032-9.8849,48.1715-1.4541,93.5279,21.58,136.5333,9.1571,17.0966,20.5266,32.6499,32.809,47.6145,3.657,4.4554,6.8863,9.4512,9.3512,14.6545,4.4584,9.4109,2.9266,18.5023-4.7031,25.5763-5.3116,4.9247-11.4327,9.133-17.6579,12.8896-32.9959,19.9118-61.2099,44.8207-81.7779,77.7225-24.203,38.7166-33.7078,80.9501-29.8716,126.3648,1.8891,22.3633,7.3478,43.8447,14.5632,65.0127,2.2813,6.6926,3.8472,13.7666,4.6538,20.7909,1.1457,9.9769-3.794,17.3686-12.9479,20.7806-8.3415,3.1093-17.1462,5.1681-25.8968,6.9551-48.0859,9.8198-90.293,30.4123-123.6455,67.1958-27.1089,29.8978-43.6067,65.1849-50.1226,104.7644-3.1498,19.1317-3.494,38.7212-5.2336,58.0923-.31,3.4518-.9245,6.9423-1.9321,10.2524-3.0137,9.899-9.7927,15.6195-20.1592,15.518-10.4378-.1024-20.8799-1.3586-31.2903-2.4055-54.1-5.4402-105.6819,.9935-151.9184,32.3038-33.6206,22.7669-57.0063,54.0972-74.354,90.2745-4.5214,9.4289-8.285,19.2237-12.3285,28.8789-8.865,21.1693-21.0318,26.0484-42.0597,16.7342-3.0351-1.3444-6.0681-2.7791-8.8799-4.5291-39.0624-24.31-81.8882-33.6724-127.367-31.0159-45.9589,2.6846-88.2264,16.2701-123.8726,46.5035-11.6622,9.8913-22.0915,21.2254-33.2998,31.6686-4.1197,3.8385-8.6813,7.2763-13.3568,10.4292-8.8169,5.946-18.0415,5.9982-26.4878-.4186-7.2624-5.5174-14.0054-11.7602-20.6776-18.0033-10.2058-9.5494-19.575-20.0772-30.3335-28.9333-20.6267-16.9792-45.293-25.5697-71.0409-31.1713-22.932-4.9891-46.0271-8.9099-69.5802-9.6812-39.9262-1.3078-76.4446,8.4437-108.5394,32.8489-5.6554,4.3003-11.6031,7.8524-18.8313,8.4925-12.7375,1.1279-23.9663-7.0731-26.4759-21.4367-9.166-52.4605-39.7871-89.2026-84.4277-115.1591-22.2319-12.9268-45.6292-23.891-68.7564-35.218-11.0892-5.431-23.3946-6.8114-35.5886-6.1251-18.4204,1.0367-36.7881,2.9964-55.1836,4.4982-7.6226,.6225-15.2586,1.5069-22.8894,1.5165-16.542,.0207-24.3936-7.4733-25.5372-24.1372-.5806-8.4613-.9029-16.9671-.7823-25.4448,.5127-36.043-9.367-69.0596-29.2809-98.918-20.6692-30.9911-45.2201-58.4888-76.1066-79.7608-25.3288-17.4439-53.4404-27.2937-84.1477-29.6878-3.6325-.2832-7.3044-.7854-10.8207-1.7087-15.1241-3.9715-22.108-16.4092-17.7256-31.434,.7389-2.5332,1.7385-5.0614,3.0454-7.3474,22.6081-39.5464,25.2759-81.261,13.5518-124.509-8.432-31.1037-21.6456-60.3504-35.6287-89.2211-7.3872-15.2521-20.4063-25.7617-33.916-35.3362-12.7566-9.0406-26.0827-17.274-38.9581-26.1527-6.0089-4.1437-11.9402-8.5587-17.2071-13.5839-8.9291-8.5195-10.061-16.8533-3.5934-27.3828,3.9822-6.4831,8.7611-12.585,13.845-18.2648,25.069-28.0071,41.4598-60.1047,46.4564-97.5826,2.9393-22.0473,2.4086-44.2039,.8974-66.3255-1.239-18.1358-4.2836-35.9841-9.8824-53.3264-8.2823-25.654-21.9667-48.0488-41.2352-66.8847-6.2089-6.0695-12.2037-12.1095-15.4429-20.3451v-10.9945c4.0369-11.0129,12.4478-16.8766,23.0753-20.9315,33.4418-12.7595,58.8289-35.1409,76.9776-65.8842,15.8832-26.9056,24.9013-56.4197,33.0161-86.3048,4.4093-16.2383,9.6334-32.4656,6.7615-49.503-2.4796-14.7099-6.1006-29.2358-9.4654-43.7855-3.4376-14.8646-7.77-29.5475-10.5947-44.5205-2.1889-11.6027,3.0183-19.548,13.9552-24.1178,3.8076-1.5909,7.8453-2.7185,11.8657-3.6974,14.5137-3.5342,29.402-5.8862,43.5463-10.5229,83.5488-27.3885,140.2247-101.0461,145.8651-188.778,.7684-11.9513,.9321-23.9489,1.9678-35.8736,1.4366-16.5391,10.0175-24.0862,26.6667-23.5933,6.2821,.186,12.577,1.2087,18.7891,2.2915,44.6095,7.7761,87.9598,3.7546,129.3399-14.9953,56.091-25.4156,93.0058-68.4792,113.9116-125.9593,2.7049-7.4372,6.0475-14.8281,10.2926-21.4755,6.1717-9.6643,15.2984-12.6949,26.0775-8.7366,7.0955,2.6056,13.8671,6.4125,20.298,10.4544,32.2444,20.2658,67.3665,29.6216,105.3352,28.1784,21.8417-.8302,43.2998-4.5274,64.4823-9.8366,44.5374-11.163,82.238-32.9864,109.4938-70.8022,5.6919-7.8972,11.5961-15.2891,20.8462-19.1925h10.9944Zm827.4982,1000.9339c-.3991-458.3606-371.9792-828.9581-829.5058-829.5473-465.438-.5993-833.8393,373.488-833.9014,831.5159-.0621,458.0852,368.5658,830.548,826.7347,832.179,464.4234,1.6532,835.5672-368.1124,836.6725-834.1477Z"/>
    <path d="M988.1067,1795.0658c-437.4877,0-791.3231-353.6771-790.6662-792.4292,.6602-440.9526,355.4341-792.0438,793.993-791.3216,438.1779,.7215,790.0189,354.9811,789.5915,795.8822-.422,435.3888-355.1609,787.8686-792.9183,787.8686Zm.6188-60.5998c401.6414,.1019,731.0087-326.8625,731.6268-725.7448,.6241-402.7652-320.9023-735.3803-723.2922-736.6337-409.0617-1.2742-738.9301,324.4781-739.1785,728.0769-.25,406.1668,326.2377,734.1992,730.8439,734.3015Z"/>
    <path d="M652.1891,577.467c-4.3744,1.5994-8.8497,2.9705-13.1015,4.8476-7.9513,3.5101-16.0266,6.8636-23.5807,11.1163-8.3681,4.7109-16.6714,9.7803-24.1445,15.7654-6.6579,5.3321-12.479,11.8397-18.065,18.3474-7.4924,8.7287-3.9242,22.3798,6.9528,25.3224,13.6757,3.6997,13.9782,17.174,5.5174,25.8488-5.7637,5.9096-11.7306,11.7083-18.1845,16.8283-4.6384,3.6797-10.0098,6.657-15.4465,9.06-9.4768,4.1887-18.9961,8.7131-28.9671,11.2546-16.5919,4.229-33.5816,4.1513-50.4041,.4482-13.6827-3.0119-23.9722-19.4209-22.5687-35.1079,1.0547-11.7887,5.7976-22.0982,11.2001-32.3833,7.7802-14.8117,18.1515-27.7065,29.1885-40.0125,7.6241-8.5008,16.0518-16.4269,24.9108-23.6388,12.429-10.1181,25.2826-19.7911,38.5476-28.7793,9.1857-6.2241,19.2304-11.2493,29.1498-16.3027,10.2254-5.2094,20.5962-10.2164,31.2179-14.5392,8.7178-3.548,17.8403-6.1541,26.8881-8.8231,8.1016-2.39,16.3219-4.3954,24.5387-6.3669,3.3423-.8019,6.8089-1.4398,10.2273-1.4822,4.4599-.0552,6.7421-1.7599,9.094-5.8362,7.2285-12.528,15.0423-24.7521,23.2328-36.6795,5.4504-7.9373,11.5116-15.5562,18.0507-22.6222,10.756-11.6225,23.2185-21.1507,37.7076-27.8906,14.8452-6.9055,30.3823-11.1,46.7377-11.2798,5.3205-.0585,10.5098,1.5699,14.969,5.764,9.7526,9.1731,12.5113,20.4043,12.9095,33.2264,.2856,9.1951-.931,17.7746-5.2863,25.7091-4.4972,8.1933-8.3433,17.1385-17.4367,21.6107-6.0314,2.9664-12.4693,5.8169-19.2004,3.8522-3.5857-1.0466-6.9208-3.9975-9.6023-6.8178-3.0113-3.1671-5.5058-6.9683-7.5954-10.834-2.8367-5.248-11.3921-8.1499-20.4022-3.2462-12.7501,6.9392-24.1368,21.1358-29.2422,34.9767,8.3958,2.6453,16.8492,5.1617,25.2028,7.9741,13.6254,4.5872,26.3364,11.3781,36.964,20.7987,8.9524,7.9356,16.4547,17.3758,21.6717,28.8253,7.8277,17.1793,7.3353,34.1998,1.4564,51.1242-2.8992,8.3464-8.0274,16.2407-13.5051,23.2832-6.1279,7.8785-13.439,14.9582-20.9113,21.6282-5.2432,4.6802-11.6183,8.0923-18.2801,12.6077,2.0635,.7112,3.6479,1.2106,5.1984,1.7992,9.7254,3.6921,18.7815,7.993,26.6235,15.506,10.5373,10.0953,16.3525,22.2953,21.189,35.5848,6.6213,18.1936,8.1507,36.9636,5.8851,55.7943-1.7805,14.7999-5.4039,29.4522-9.2123,43.9056-2.236,8.4857-5.7285,16.8369-9.9157,24.566-6.34,11.703-13.2321,23.1983-20.9279,34.0454-5.8059,8.1835-12.9022,15.5501-20.0393,22.6629-7.1268,7.1025-15.8866,11.8652-25.1602,15.9974-21.7372,9.6858-43.8373,9.1265-65.2437,.9691-15.5152-5.9124-24.6621-19.0609-29.3197-35.277-3.3863-11.7902-3.346-23.7358-1.5939-35.4388,1.7741-11.85,5.1196-23.5586,8.8065-34.9972,2.6775-8.3068,6.4483-16.4095,10.8114-23.9809,3.9568-6.8663,9.3009-12.9748,17.0039-16.2461,2.9948-1.2719,7.7174,.8734,8.8052,4.2492,2.2356,6.9371,4.202,13.9605,6.3878,20.9142,1.9577,6.2279,4.9642,6.7547,10.5768,3.1334,6.4715-4.1755,10.3478-10.0438,12.8052-16.9838,3.0826-8.7054,6.3973-17.396,8.5341-26.3501,2.1758-9.1181,.0773-18.2275-3.1895-26.8889-4.2925-11.3808-21.5069-23.1616-33.5228-23.2457-4.4147-.0309-8.8445,.1808-13.2397-.1209-3.6546-.2509-5.352,.9584-6.1785,4.6586-2.1157,9.4721-4.4645,18.9032-7.0859,28.2481-2.6993,9.6228-5.7083,19.1642-8.803,28.6691-4.2088,12.9268-8.2974,25.9084-13.0452,38.6399-5.1815,13.8944-10.4693,27.8074-16.7909,41.2024-6.6625,14.1176-14.6531,27.6054-21.9697,41.418-10.3236,19.4892-25.6466,34.991-40.7476,50.5796-5.6625,5.8455-12.8754,10.1583-19.1144,15.4828-12.3639,10.5515-26.5053,18.0884-42.0379,22.0113-19.3912,4.8973-39.2152,8.4369-59.4039,6.894-23.2616-1.7777-46.3352-5.2505-65.8882-19.1594-8.8735-6.3121-16.8348-14.2487-24.0075-22.4942-5.1325-5.9002-9.1334-13.1862-12.1036-20.4793-5.5543-13.6378-8.4078-28.0133-6.1236-42.8402,1.8147-11.7798,3.0509-23.849,6.7013-35.0891,3.608-11.1098,9.3606-21.6632,15.2158-31.8616,5.2578-9.158,11.5232-17.8295,18.1235-26.0932,4.5684-5.7197,10.2793-10.5883,15.8117-15.4602,5.9821-5.268,11.9947-10.641,18.6362-14.9868,9.1293-5.9736,18.4294-12.0725,28.4445-16.2096,12.9216-5.338,26.4981-9.2546,40.036-12.8727,7.5647-2.0218,15.6005-2.4769,23.4666-3.0961,4.1202-.3243,8.8541,1.2253,9.6112,5.5224,.8344,4.7355,.8146,10.431-1.127,14.6536-2.8029,6.0959-8.5613,10.8221-11.4298,16.9013-3.4479,7.3073-4.8052,15.4005-1.8377,23.5859,5.4977,15.165,19.3267,23.6353,36.2284,21.6853,13.4882-1.5562,24.4447-8.0188,33.0451-18.3957,11.6349-14.0383,21.6556-29.1799,29.1123-45.834,5.6862-12.6997,10.8931-25.6296,15.8731-38.6257,5.6332-14.7007,10.9875-29.5174,16.0572-44.4218,3.5465-10.4266,6.1378-21.1769,9.643-31.6191,5.7889-17.2461,11.9493-34.368,18.02-51.5184,.6463-1.8259,1.7377-3.4941,2.6226-5.2355-.2088-.345-.4176-.6901-.6265-1.0352Zm52.791-4.7977c-7.7274,30.8109-15.3817,61.3311-23.2782,92.8165,3.7782-.5668,6.6056-1.1243,9.4601-1.3969,14.8432-1.4173,25.6327-9.723,33.5635-21.3987,5.8039-8.5444,9.4724-18.326,9.88-29.0701,.8474-22.3405-8.0903-35.0031-29.6255-40.9508Z"/>
    <path d="M579.2615,1181.8647c-8.1801-3.2778-15.2768-6.4911-22.6191-8.9792-11.6972-3.9635-23.388-8.1913-35.3965-10.9219-12.4228-2.8248-25.1901-4.792-38.0529-3.3847-5.4441,.5955-10.1204,3.6006-12.2731,8.7017-2.5388,6.0158-.4788,12.4657,3.4088,16.6524,6.1768,6.6522,13.6802,12.138,20.9388,17.7047,11.0019,8.4376,14.8526,19.936,.781,30.8011-9.5374,7.3642-21.0803,10.6645-32.8242,11.7905-20.7263,1.9875-41.3177,.8208-61.5682-4.8976-15.6595-4.4221-30.9123-10.0753-44.0834-19.4374-17.2099-12.2329-32.2817-26.6206-38.8542-47.9897-5.4144-17.6037-4.7469-34.1173,5.0251-50.0275,6.7048-10.9163,15.119-19.9394,26.7329-25.7118,8.0996-4.0257,15.9824-8.5503,24.2902-12.0794,12.5655-5.3377,25.8829-7.2356,39.5329-7.0143,6.334,.1026,12.7254-.7167,18.9991-.1326,9.405,.8757,18.7678,2.4032,28.0736,4.0718,5.9109,1.0598,11.7922,2.5549,17.4967,4.4322,8.4586,2.7835,16.799,5.9502,25.0968,9.1918,8.8276,3.4486,17.6874,6.871,26.2812,10.8489,14.0275,6.4935,27.9717,13.1918,41.7246,20.2455,12.8991,6.6158,25.5167,13.7819,38.2301,20.7572,3.0819,1.6909,6.0532,3.5834,9.0743,5.3826,9.5521-4.4903,19.0364-9.5166,28.9553-13.4463,9.2442-3.6625,18.9241-6.2457,28.4649-9.13,4.6579-1.408,9.4668-2.309,14.153-3.632,13.8801-3.9185,28.0658-5.6833,42.436-5.9483,10.524-.1942,21.1204-.7783,31.566,.1486,13.904,1.2338,27.8907,2.9063,41.4643,6.0307,9.7254,2.2384,19.396,6.1756,28.0847,11.1224,13.7684,7.8386,26.0069,17.4371,34.784,31.5567,10.9968,17.6906,14.2644,36.4493,11.0861,56.284-2.2079,13.7781-7.6452,26.5066-16.4566,37.9877-8.1585,10.6303-18.2751,17.7572-30.2078,22.9437-13.6382,5.9279-27.6458,5.1677-41.4554,1.3043-10.77-3.0131-21.4394-6.6726-31.7213-11.0581-9.1577-3.9056-17.7336-9.1806-26.5459-13.8894-10.1362-5.4165-20.2669-10.8439-30.3689-16.3237-10.2319-5.5502-20.499-11.0423-30.6085-16.8092-5.7495-3.2799-6.618-3.0141-11.3334,1.6177-14.8937,14.6289-25.2624,32.105-34.6567,50.6098-6.7065,13.2102-11.5135,26.8203-14.3241,41.0982-2.8163,14.3063-3.9993,28.9776-1.4614,43.4702,2.0716,11.8299,5.8339,23.1216,11.5861,33.9542,7.111,13.3915,16.032,25.1558,27.4883,34.7507,10.3551,8.6728,21.7079,16.1073,35.6937,17.9301,7.9453,1.0355,15.0457-.425,22.1264-4.7118,6.0176-3.6431,10.5477-8.2545,11.5756-14.7093,1.2915-8.1097,1.3745-16.5374,.8778-24.7612-.3194-5.2896-2.0849-10.6813-4.138-15.6395-5.2289-12.6269-13.5635-16.0332-25.952-15.9142-8.5579,.0822-17.2693,1.3326-25.6136-2.3079-5.4869-2.3939-8.4043-6.3305-9.1996-12.0284-2.3371-16.7436,6.8659-26.6506,19.4947-35.1766,12.4451-8.4022,26.6337-11.8531,40.8596-14.3904,15.3334-2.7347,30.804-2.0673,46.3588,1.24,18.3991,3.9122,34.5373,11.5804,47.6858,24.7185,9.911,9.9031,17.4621,21.5792,23.0232,34.7404,5.8736,13.9008,9.6179,28.062,11.8084,42.9695,4.5723,31.117,.4135,61.1629-9.367,90.6576-6.5225,19.6695-16.1496,37.7876-29.5443,53.6566-8.3589,9.9031-19.2495,16.6781-30.3301,23.3145-11.9008,7.128-24.6881,10.899-38.1908,10.93-10.2856,.0238-20.6819-1.7679-30.8426-3.7212-18.6901-3.5928-36.3185-10.3712-52.7396-20.0461-19.152-11.284-36.6546-24.7945-51.5316-41.3089-13.5024-14.9887-27.1116-30.0383-38.9683-46.3041-10.0161-13.7407-18.0062-29.037-26.1306-44.0571-9.0693-16.7673-16.1976-34.4847-20.8765-52.9758-2.6811-10.5957-4.0825-21.5539-5.4806-32.4235-1.1178-8.6902-1.8305-17.492-1.8504-26.2463-.0174-7.6533,1.0776-15.3201,1.8641-22.962,1.7102-16.616,6.4272-32.472,13.0004-47.7337,8.2187-19.0819,18.1504-37.1494,32.7468-52.3037,5.7921-6.0136,11.1654-12.4285,16.8521-18.5466,1.4071-1.514,3.2928-2.5833,5.8455-4.5353Zm125.4204,15.8474c2.1932,1.9752,2.9549,3.073,3.998,3.5341,7.0731,3.1269,14.0573,6.5499,21.3508,9.0633,14.1675,4.8826,28.059,10.7389,43.4623,11.2906,8.8656,.3177,17.3627-.194,25.0717-4.7719,8.5022-5.049,10.7382-14.7672,5.3555-20.9335-4.9591-5.6814-11.5043-9.0757-18.4863-10.189-9.0041-1.4353-18.2962-1.4602-27.4571-1.3692-5.6323,.0559-11.4034,.9031-16.8451,2.3792-11.8864,3.2243-23.6025,7.0765-36.4499,10.9963Z"/>
    <path d="M1573.7042,1336.7939c-3.4158,4.9095-6.2272,10.4093-10.349,14.6289-20.5653,21.0527-40.8991,42.389-62.4532,62.3986-15.8726,14.7354-33.1056,28.1096-50.4989,41.061-9.5268,7.094-20.4574,12.4252-31.1456,17.7703-3.6973,1.8492-8.6982,2.263-12.8824,1.6969-6.5724-.8892-9.5153-7.3932-7.9409-16.5022,1.1276-6.5242,2.9948-12.9176,4.4019-19.3978,.6469-2.9789,1.2035-6.0108,1.4035-9.045,.2601-3.944-2.24-5.5767-5.5197-3.3289-3.5117,2.4066-6.8134,5.2891-9.6727,8.4473-10.115,11.173-19.8897,22.6541-30,33.8315-17.5006,19.3478-35.7915,37.9287-56.537,53.8316-10.9132,8.3658-23.687,13.4116-37.303,14.5972-9.769,.8508-18.7136-2.4657-23.3637-12.5494-.8167-1.7711-2.125-3.3154-3.265-5.0536-6.6581,5.6792-13.1264,11.2515-19.6542,16.7532-14.1164,11.8971-29.4212,22.1172-47.4086,26.6784-10.7477,2.7253-21.8082,5.6806-33.4201,2.6555-16.3682-4.264-26.5859-13.7623-29.7053-30.6907-1.4846-8.056-1.2872-15.7953,.7025-23.8044,4.1404-16.6667,7.5394-33.516,11.4466-50.2427,2.631-11.2626,5.7045-22.4213,8.4022-33.6691,1.9468-8.1175,3.4596-16.3394,5.4202-24.4532,2.4845-10.2812,5.3312-20.4749,7.8233-30.7543,1.9286-7.9549,3.4624-16.0046,5.3357-23.9737,2.0884-8.8844,4.3823-17.7203,6.5456-26.5873,.8564-3.5102,1.5279-7.0662,2.4126-10.5687,2.9064-11.5077,6.0293-22.9631,8.7653-34.5106,2.2398-9.4538,3.8662-19.0525,6.0895-28.5107,2.7911-11.8735,6.0075-23.6463,8.8606-35.5059,1.9149-7.959,3.4354-16.0121,5.2872-23.9873,1.3938-6.0024,3.3678-11.8882,4.4427-17.9399,.6854-3.8594,.7462-8.0197,.0889-11.8748-.6678-3.9171-8.5522-5.4056-13.5043-3.0546-3.5329,1.677-7.085,3.3418-10.7409,4.7124-.9791,.3671-3.3705-.2673-3.4031-.6066-.1652-1.7172-.374-3.9338,.5318-5.1699,6.6462-9.0681,15.7901-15.379,25.0783-21.3311,7.7558-4.9699,15.8292-9.5036,24.0367-13.6916,7.0205-3.5824,14.3437-6.6241,21.6945-9.4911,6.9879-2.7253,14.1281-5.1033,21.3108-7.2711,4.5236-1.3654,9.2041-2.4875,13.8918-2.98,12.7827-1.3425,25.343-.3078,34.9102,9.3719,4.0324,4.0799,6.8868,9.165,7.4051,15.9652,.9182,12.0459-3.3036,22.6848-6.1971,33.7694-1.2331,4.724-2.42,9.461-3.7281,14.1642-2.4893,8.9519-4.9805,17.9044-7.5998,26.8187-3.108,10.5776-6.4056,21.0994-9.524,31.674-4.1618,14.1127-8.1875,28.2657-12.354,42.3769-2.7952,9.4674-5.86,18.8565-8.5768,28.3457-3.8089,13.304-7.1042,26.7613-11.1632,39.986-6.5893,21.4684-13.7631,42.7568-20.4029,64.2101-3.3388,10.7871-5.994,21.7844-9.0577,32.6586-1.9548,6.9387-4.1145,13.8195-6.1354,20.7399-.769,2.6338-1.6374,5.2713-2.0441,7.9698-.483,3.2037,3.0113,6.5352,6.4217,6.0375,3.8834-.5665,7.7906-1.3117,11.5165-2.5105,3.0597-.9844,4.6989-3.101,5.1774-6.8483,.9463-7.4121,2.4047-14.8432,4.5441-21.9994,3.4064-11.3943,7.0821-22.7546,11.4948-33.7891,4.8381-12.098,9.9486-24.1901,16.206-35.59,7.0783-12.8953,14.9903-25.4298,23.5728-37.3793,12.4484-17.332,25.9405-33.9336,42.3845-47.7469,14.7179-12.3633,30.186-23.8,48.2794-30.7887,17.5917-6.7949,35.7311-10.446,54.8873-8.995,10.0656,.7623,19.7162,1.8459,28.573,6.9544,.4211,.2428,.9817,.2548,1.3836,.5177,2.9938,1.9595,5.9447,5.4259,8.9479,5.4653,2.324,.0306,4.7038-4.2148,7.0597-6.5584,14.7516-14.6733,32.5171-24.9002,50.7051-34.548,10.2665-5.4459,20.6452-10.445,32.3868-11.7577,1.3078-.1462,2.6334-.3784,3.9345-.2998,5.8514,.3526,8.8005,3.4895,7.0588,8.941-3.2523,10.1807-7.0165,20.2288-11.1485,30.0885-3.7103,8.8531-7.9539,17.5083-12.4063,26.0185-5.9638,11.3984-12.6553,22.4201-18.4947,33.8783-9.1474,17.9496-19.6805,35.2561-26.0174,54.5506-.4067,1.2383-.9038,2.459-1.1763,3.727-.5775,2.688-3.0307,6.2183,.4433,7.7431,2.0429,.8965,5.883-.2729,7.9506-1.8101,9.2839-6.9027,17.901-14.7332,27.3891-21.3211,7.3843-5.1276,15.6788-8.9524,23.6243-13.2538,.9819-.5316,2.306-.4311,3.4715-.6235,.3646,.4435,.7291,.8871,1.0937,1.3308Zm-132.5837-12.7835c.0107-7.8781-3.9465-13.1526-10.6528-13.936-9.1607-1.0705-17.7138,1.4985-25.9676,4.9209-11.182,4.6365-19.7765,12.7579-26.542,22.5068-6.9505,10.0157-12.8839,20.6077-12.0438,33.6435,.5417,8.4053,7.8327,15.5788,15.707,14.1076,12.3125-2.3004,23.4109-7.6501,32.6284-16.0752,5.5376-5.0614,10.5006-10.9284,14.8809-17.0362,6.0313-8.4101,11.2416-17.401,11.9899-28.1313Z"/>
    <path d="M1243.0611,668.2678c7.6121,0,14.6941-.0834,21.7733,.0199,10.0539,.1467,20.0819,.9262,28.9081,6.318,11.6394,7.1101,23.5626,23.5551,21.8464,39.3816-1.2187,11.2394-11.3982,20.8401-24.0113,21.4286-9.4954,.443-19.0534-.6053-28.5872-.7884-8.2428-.1583-16.4909-.0329-25.842-.0329-.3746,5.0112-.8039,10.8215-1.2488,16.6307-.0628,.8211-.235,1.6337-.3017,2.4546-1.2605,15.491-2.3826,30.9946-3.8203,46.469-.7366,7.9298-2.2997,15.7836-3.0145,23.7146-1.028,11.4071-1.51,22.8624-2.4432,34.2793-.6097,7.4562-1.723,14.8701-2.4055,22.3218-1.5134,16.526-3.3061,33.0425-4.1678,49.6054-.4516,8.6785-3.492,15.7336-8.7863,22.2603-8.3849,10.3365-19.4755,16.4197-31.9316,20.1091-9.2903,2.7517-18.6696,5.586-28.2143,7.0057-13.5221,2.0116-27.2184,2.958-40.8701,3.9455-5.8473,.4229-6.7665-.9872-5.8019-6.6823,1.2888-7.6081,3.0943-15.1441,4.0558-22.7893,2.9444-23.4105,5.6582-46.8507,8.3356-70.2937,2.6628-23.3156,5.0635-46.6615,7.7859-69.9699,2.1299-18.2367,4.6504-36.4275,6.8487-54.6566,1.0374-8.6023,1.7264-17.2466,2.6161-26.3098-7.0904,0-14.5678-.4545-21.9655,.1201-8.4121,.6534-15.9825-1.8489-22.1427-6.6904-4.6528-3.6568-8.6187-9.1121-10.9692-14.5912-5.8537-13.6447-4.0725-27.1091,5.1949-38.7518,5.2565-6.6038,13.1741-9.0461,21.6358-8.9793,12.097,.0955,24.1936,.2762,36.2896,.4589,2.5716,.0388,4.2381-.3941,4.852-3.5561,1.8068-9.3089,3.8787-18.5754,6.1545-27.7824,3.7281-15.082,7.4716-30.1678,11.6737-45.1213,1.7806-6.3364,4.6683-12.371,7.1776-18.4915,4.288-10.4589,8.5229-20.9446,13.1024-31.2762,1.5886-3.5842,4.008-6.8315,6.262-10.0843,11.7671-16.9816,26.0513-31.2274,45.1871-39.7369,11.5856-5.1521,23.9377-5.1366,36.4068-4.3952,22.8168,1.3565,42.6025,10.1525,60.2749,24.0405,18.9168,14.866,34.9441,32.2043,43.8104,55.0896,4.383,11.3135,4.9897,22.8272-.6459,33.8894-3.9656,7.7843-10.6476,12.9262-19.2266,14.5505-10.0157,1.8965-20.2451,1.1494-30.1145-.9548-11.5902-2.4711-21.0281-8.8082-28.2412-18.4902-6.2748-8.4222-10.8521-17.6073-13.0837-27.7832-1.6668-7.6003-2.6739-15.3778-3.445-23.129-.4214-4.2388-2.0743-5.8724-5.8748-3.6987-4.685,2.6796-8.6951,5.8399-10.2894,11.7733-1.799,6.6962-5.7222,12.8495-7.2956,19.5727-3.1267,13.3616-5.3604,26.9369-7.7937,40.4543-1.2366,6.8696-2.2602,13.7866-3.1005,20.716-1.0944,9.0252-1.8682,18.0888-2.8694,27.126-.3785,3.4151-1.0067,6.8025-1.6873,11.3002Z"/>
    <path d="M1481.3819,714.0766c3.8939-8.0979,11.0267-11.8903,18.274-15.3245,9.5284-4.515,19.8385-6.2325,30.227-5.6545,14.0331,.7807,29.294,5.6448,34.3972,23.1412,3.2984,11.3089,7.7854,22.4288,9.6033,33.9699,2.0594,13.0731,1.6048,26.5306,2.4868,39.8049,.5517,8.303,1.2219,16.625,2.4383,24.8499,1.4548,9.8361,3.2047,19.6578,5.4528,29.3403,2.8849,12.4247,12.5043,17.925,24.769,14.493,4.8778-1.3649,9.4939-3.6584,14.3658-5.0514,10.2653-2.9353,20.8169-4.2302,31.1388-.9794,7.0366,2.2162,9.1431,10.507,6.5962,16.1376-4.5044,9.958-12.6211,15.9244-21.1404,21.5133-14.8106,9.7162-30.9884,16.9991-48.041,21.2654-18.8056,4.7048-38.2491,7.8563-57.6712,5.5361-12.7541-1.5237-25.9551-4.0544-36.0028-13.3774-7.0077-6.5021-11.1578-14.7792-13.1191-24.2755-1.2469-6.0374-2.9182-12.1079-5.3563-17.75-3.5059-8.1129-10.1451-8.7664-16.4786-2.4336-6.6301,6.6293-13.2947,13.2398-20.2263,19.5483-12.2426,11.1418-26.0382,20.0672-40.2905,28.4687-8.4021,4.953-17.1465,8.4006-26.6063,9.5519-6.6614,.8106-13.5731-.5562-20.2736,.086-8.0162,.7682-15.0282-2.2697-22.3016-4.3757-11.2825-3.2667-19.1139-10.8951-26.1281-20.0926-6.0596-7.9455-10.1139-16.6888-12.7118-26.0192-2.0055-7.2024-2.918-14.8389-3.295-22.3338-.5427-10.7894-1.1673-21.7447,.0944-32.4103,1.4568-12.3148,4.7245-24.4385,7.5628-36.5617,5.3553-22.8751,16.3282-43.2798,29.2286-62.5706,7.8963-11.8075,17.9769-22.2687,30.378-29.226,14.5864-8.1834,30.6106-10.392,47.5632-7.9449,15.9687,2.3052,30.0029,9.1365,43.6463,16.641,10.163,5.5902,19.0693,13.4628,28.5498,20.2992,.8925,.6436,1.8872,1.1452,2.8705,1.7344Zm-78.1263,57.6664c-2.0394,9.2197,10.7514,28.9027,21.4874,31.4348,4.8997,1.1557,9.7515,2.6202,14.7109,3.3973,11.157,1.7479,20.8425-1.3376,28.2407-10.0882,10.3889-12.2879,7.7638-28.2762-2.9075-39.9219-8.5224-9.3005-19.2255-14.1686-31.6043-14.9939-6.5442-.4362-12.8536,.2928-18.6555,4.8467-8.0564,6.3234-10.6278,14.5098-11.2719,25.3252Z"/>
    <path d="M1013.7294,1296.5689c21.2009,.4434,41.3446,3.3982,60.4491,10.8981,7.294,2.8633,13.6823,8.1133,20.3462,12.4845,9.4634,6.2073,16.4751,14.9709,22.2355,24.3654,4.2596,6.9468,6.737,15.0594,9.4993,22.8334,3.6332,10.224,4.6933,21.1093,3.8474,31.694-1.0781,13.4939-3.1516,27.0746-6.5323,40.1696-3.1559,12.2245-7.8968,24.181-13.2256,35.6587-4.3618,9.3945-10.3241,18.1057-16.1153,26.7596-5.5021,8.2222-11.3585,16.2653-17.7077,23.8438-4.8394,5.7764-10.4414,10.9929-16.1498,15.9449-10.7288,9.3071-21.9956,17.6731-35.0528,23.8828-13.9805,6.6489-28.4329,10.7738-43.6347,11.6587-13.4261,.7815-26.7615-.4825-40.0076-4.0885-10.8327-2.9488-20.8626-7.214-30.1203-13.1808-5.9188-3.8146-11.3446-8.5947-16.3529-13.5832-14.3405-14.2841-25.8135-30.5423-31.3441-50.2971-2.5696-9.1783-4.2172-18.6128-6.3501-27.9156-4.1887-18.2691-2.2886-36.4779,2.0619-54.249,2.8945-11.8234,7.3538-23.4795,12.7305-34.4148,4.7691-9.6999,11.2745-18.6882,17.9528-27.2587,4.7561-6.1035,10.7462-11.3886,16.7694-16.3269,8.0388-6.5912,16.0953-13.5026,25.1533-18.4166,9.8791-5.3595,20.9946-8.3964,31.4223-12.7982,16.3261-6.8916,33.6692-6.4578,50.1256-7.6641Zm19.6809,107.1165c-.9084-4.8246-1.674-10.4112-3.0489-15.8435-2.1698-8.5731-8.1699-14.5896-16.0443-17.2277-14.8563-4.9774-33.2111,2.6954-40.9407,16.1639-6.0123,10.4761-8.5557,21.5783-5.7838,33.715,2.5366,11.1066,7.9921,20.0987,19.0833,23.548,11.1895,3.4799,21.3495,.7211,30.5319-7.3569,9.9385-8.7429,14.5514-19.5075,16.2024-32.9988Z"/>
    <path d="M979.3486,659.8471c7.7685,.8503,16.1755,1.0661,24.2501,2.8157,12.7919,2.7719,25.5358,6.5922,36.4733,13.8859,9.8066,6.5394,18.9832,14.0418,26.6499,23.3867,9.0111,10.9838,15.6664,22.9067,19.928,36.4453,3.736,11.8693,5.2536,23.8763,5.9948,36.2684,1.1337,18.9557-2.2862,37.0495-9.127,54.3459-6.7895,17.167-16.2595,32.8309-29.3251,46.4161-9.1979,9.5636-19.217,17.9385-29.7949,25.6997-5.3975,3.9604-11.5819,6.9283-17.6223,9.9169-14.1971,7.0238-29.1203,11.9969-44.8686,13.9623-18.2718,2.2802-36.7369,5.122-54.9712,1.2503-12.791-2.7159-25.8324-6.2033-37.4341-12.0025-10.8746-5.4359-19.9155-14.2112-27.7747-24.1661-14.0919-17.8495-18.828-38.3161-20.1954-60.2686-.9335-14.9859,1.7424-29.5543,5.4975-43.73,3.2131-12.1298,8.0112-24.0898,13.8595-35.2033,6.2173-11.8144,13.5911-23.2932,22.0962-33.5635,11.3888-13.7526,24.5959-25.8459,40.2272-35.0577,11.0739-6.526,22.5417-11.6265,35.0275-14.9514,13.3746-3.5617,26.8555-5.0235,41.1093-5.4498Zm-15.408,145.1952c3.1139-1.2037,8.8114-2.9986,14.1338-5.5699,6.1952-2.9932,10.7579-8.2452,13.8572-14.1352,6.7153-12.7619,6.9483-25.8414,.3923-39.0178-2.537-5.0992-6.3341-8.8179-11.0375-11.2753-9.1644-4.7884-18.123-4.6284-27.7997,.3948-9.6265,4.9973-15.3104,12.9255-19.0388,21.9927-4.0563,9.8645-4.2873,20.2077,.7513,30.6439,5.4249,11.2366,14.0355,15.999,28.7415,16.9668Z"/>
  </g>
</svg>