<svg id="Groupe_2" data-name="Groupe 2" xmlns="http://www.w3.org/2000/svg" xmlns:xlink="http://www.w3.org/1999/xlink" width="1440" height="181.107" viewBox="0 0 1440 181.107">
  <defs>
    <clipPath id="clip-path">
      <path id="Tracé_15" data-name="Tracé 15" d="M0,181.107H1440V0H0Z" fill="none"/>
    </clipPath>
  </defs>
  <g id="Groupe_de_masques_1" data-name="Groupe de masques 1" clip-path="url(#clip-path)">
    <path id="Tracé_14" data-name="Tracé 14" d="M0,144.334l9.6-2.03C19.2,140.12,38,136.29,58,121.849c18.8-14.288,38-38.8,57-32.674,19.4,6.129,39,42.9,58,55.159s38,0,57-12.259c19.6-12.256,39-24.514,58-16.355,19.2,8.312,38,36.657,58,42.9,18.8,6.013,38-10.075,57-28.577,19.4-18.27,39-38.955,58-49.029,19-10.227,38-10.227,57-6.128,19.6,3.945,39,12.371,58,28.575,19.2,16.356,38,40.871,58,55.159,18.8,14.44,38,18.27,57,12.256,19.4-6.243,39-22.331,58-42.9,19-20.416,38-44.931,57-53.089,19.6-8.314,39,.114,58,18.385,19.2,18.5,38,46.847,58,57.189,18.8,10.343,38,1.915,57-10.227,19.4-12.372,39-28.46,58-40.832,19-12.144,38-20.57,57-10.228,19.6,10.342,39,38.688,58,55.159,19.2,16.471,38,20.3,58,20.416,18.8-.115,38-3.945,57-20.416,19.4-16.471,39-44.817,58-57.189,19-12.143,38-8.312,57,10.189,19.6,18.271,39,51.213,48,67.416l10,16.357V0H0Z" transform="translate(0 0.001)" fill="#b9001a"/>
  </g>
</svg>
